<svg width="53" height="53" viewBox="0 0 53 53" fill="none" xmlns="http://www.w3.org/2000/svg">
<path d="M35.8208 28.1282C38.3944 26.1034 40.2728 23.3268 41.1948 20.1848C42.1169 17.0427 42.0366 13.6914 40.9653 10.597C39.8939 7.50269 37.8848 4.81921 35.2173 2.91992C32.5498 1.02064 29.3566 0 26.0821 0C22.8075 0 19.6144 1.02064 16.9469 2.91992C14.2794 4.81921 12.2702 7.50269 11.1989 10.597C10.1275 13.6914 10.0473 17.0427 10.9693 20.1848C11.8914 23.3268 13.7698 26.1034 16.3433 28.1282C11.9335 29.8949 8.08584 32.8252 5.21043 36.6067C2.33502 40.3882 0.539686 44.8791 0.0158336 49.6007C-0.0220856 49.9454 0.00826449 50.2942 0.10515 50.6272C0.202036 50.9602 0.36356 51.2708 0.580501 51.5414C1.01863 52.0878 1.65589 52.4378 2.35208 52.5144C3.04828 52.591 3.74638 52.3879 4.29281 51.9498C4.83925 51.5116 5.18925 50.8744 5.26583 50.1782C5.84224 45.0468 8.28901 40.3077 12.1387 36.8663C15.9883 33.4248 20.9709 31.5224 26.1346 31.5224C31.2982 31.5224 36.2809 33.4248 40.1305 36.8663C43.9802 40.3077 46.4269 45.0468 47.0033 50.1782C47.0747 50.8232 47.3825 51.4189 47.8672 51.8503C48.352 52.2818 48.9794 52.5184 49.6283 52.5144H49.9171C50.6052 52.4352 51.2341 52.0873 51.6668 51.5465C52.0995 51.0056 52.3009 50.3156 52.2271 49.6269C51.7008 44.892 49.8958 40.3895 47.0056 36.6022C44.1154 32.8149 40.249 29.8856 35.8208 28.1282ZM26.0821 26.2644C24.0054 26.2644 21.9753 25.6486 20.2486 24.4949C18.5219 23.3411 17.1761 21.7012 16.3813 19.7826C15.5866 17.864 15.3787 15.7528 15.7838 13.716C16.189 11.6792 17.189 9.80826 18.6575 8.3398C20.1259 6.87135 21.9968 5.87133 24.0336 5.46618C26.0704 5.06104 28.1816 5.26897 30.1003 6.06369C32.0189 6.85841 33.6588 8.20422 34.8125 9.93094C35.9663 11.6577 36.5821 13.6877 36.5821 15.7644C36.5821 18.5492 35.4758 21.2199 33.5067 23.189C31.5376 25.1582 28.8669 26.2644 26.0821 26.2644Z" fill="black"/>
</svg>
