<svg width="55" height="55" viewBox="0 0 55 55" fill="none" xmlns="http://www.w3.org/2000/svg">
<g clip-path="url(#clip0_29_14)">
<path d="M13.9468 54.8053C11.8195 54.7816 9.7121 54.3914 7.71726 53.652C6.26053 53.1135 4.94256 52.2563 3.85971 51.143C2.7434 50.0623 1.88493 48.744 1.34804 47.286C0.609181 45.2912 0.219559 43.184 0.196275 41.057C0.0328922 37.5208 0 36.4601 0 27.5C0 18.5399 0.0361275 17.483 0.194657 13.9441C0.220767 11.8179 0.610868 9.7118 1.34804 7.71726C1.88754 6.26029 2.7448 4.9418 3.85755 3.85755C4.93907 2.74225 6.25766 1.88457 7.71564 1.34804C9.71048 0.608568 11.8178 0.218398 13.9452 0.194657C17.4825 0.0328922 18.5447 0 27.5 0C36.4553 0 37.517 0.0361275 41.0559 0.194657C43.1827 0.220583 45.2893 0.610686 47.2844 1.34804C48.7417 1.88528 50.0599 2.74266 51.1419 3.85701C52.2566 4.93935 53.1143 6.25792 53.652 7.71564C54.3916 9.71045 54.782 11.8178 54.8059 13.9452C54.9676 17.4841 55.0005 18.5436 55.0005 27.5011C55.0005 36.4585 54.9676 37.5181 54.8059 41.057C54.7802 43.184 54.3899 45.2909 53.652 47.286C53.0938 48.7328 52.2388 50.0467 51.1421 51.1431C50.0454 52.2395 48.7313 53.0941 47.2844 53.652C45.2895 54.3916 43.1822 54.782 41.0548 54.8059C37.5192 54.9676 36.4564 55.0005 27.4989 55.0005C18.5415 55.0005 17.4819 54.9693 13.9463 54.8059" fill="url(#paint0_radial_29_14)"/>
<path d="M13.9468 54.8053C11.8195 54.7816 9.7121 54.3914 7.71726 53.652C6.26053 53.1135 4.94256 52.2563 3.85971 51.143C2.7434 50.0623 1.88493 48.744 1.34804 47.286C0.609181 45.2912 0.219559 43.184 0.196275 41.057C0.0328922 37.5208 0 36.4601 0 27.5C0 18.5399 0.0361275 17.483 0.194657 13.9441C0.220767 11.8179 0.610868 9.7118 1.34804 7.71726C1.88754 6.26029 2.7448 4.9418 3.85755 3.85755C4.93907 2.74225 6.25766 1.88457 7.71564 1.34804C9.71048 0.608568 11.8178 0.218398 13.9452 0.194657C17.4825 0.0328922 18.5447 0 27.5 0C36.4553 0 37.517 0.0361275 41.0559 0.194657C43.1827 0.220583 45.2893 0.610686 47.2844 1.34804C48.7417 1.88528 50.0599 2.74266 51.1419 3.85701C52.2566 4.93935 53.1143 6.25792 53.652 7.71564C54.3916 9.71045 54.782 11.8178 54.8059 13.9452C54.9676 17.4841 55.0005 18.5436 55.0005 27.5011C55.0005 36.4585 54.9676 37.5181 54.8059 41.057C54.7802 43.184 54.3899 45.2909 53.652 47.286C53.0938 48.7328 52.2388 50.0467 51.1421 51.1431C50.0454 52.2395 48.7313 53.0941 47.2844 53.652C45.2895 54.3916 43.1822 54.782 41.0548 54.8059C37.5192 54.9676 36.4564 55.0005 27.4989 55.0005C18.5415 55.0005 17.4819 54.9693 13.9463 54.8059" fill="url(#paint1_radial_29_14)"/>
<path d="M20.7474 27.617C20.7475 26.2699 21.1471 24.9531 21.8956 23.8331C22.6441 22.7131 23.7079 21.8402 24.9525 21.3249C26.1971 20.8095 27.5665 20.6747 28.8877 20.9377C30.2089 21.2006 31.4224 21.8494 32.3748 22.8021C33.3272 23.7547 33.9757 24.9684 34.2384 26.2896C34.501 27.6109 34.3659 28.9803 33.8503 30.2248C33.3346 31.4692 32.4615 32.5328 31.3413 33.2811C30.2211 34.0293 28.9042 34.4286 27.5572 34.4283C25.7509 34.4281 24.0187 33.7103 22.7417 32.4329C21.4646 31.1555 20.7473 29.4232 20.7474 27.617M17.0651 27.617C17.0651 29.6921 17.6805 31.7206 18.8333 33.446C19.9862 35.1715 21.6249 36.5163 23.542 37.3104C25.4592 38.1045 27.5688 38.3123 29.6041 37.9074C31.6393 37.5026 33.5088 36.5033 34.9762 35.036C36.4435 33.5686 37.4428 31.6991 37.8476 29.6639C38.2525 27.6286 38.0447 25.519 37.2506 23.6018C36.4564 21.6847 35.1116 20.046 33.3862 18.8931C31.6608 17.7403 29.6323 17.1249 27.5572 17.1249C26.1793 17.1248 24.8149 17.3962 23.5419 17.9234C22.269 18.4507 21.1123 19.2235 20.138 20.1978C19.1637 21.1721 18.3909 22.3288 17.8636 23.6017C17.3364 24.8747 17.065 26.2391 17.0651 27.617M36.0126 16.7092C36.0124 17.1941 36.156 17.6682 36.4252 18.0715C36.6944 18.4748 37.0772 18.7892 37.5252 18.975C37.9731 19.1608 38.466 19.2096 38.9417 19.1152C39.4173 19.0208 39.8543 18.7874 40.1974 18.4447C40.5404 18.102 40.7741 17.6652 40.8689 17.1896C40.9637 16.7141 40.9154 16.2211 40.73 15.773C40.5446 15.3249 40.2306 14.9418 39.8275 14.6722C39.4244 14.4027 38.9504 14.2587 38.4655 14.2584V14.2584C37.8155 14.2587 37.1922 14.517 36.7325 14.9765C36.2728 15.436 36.0143 16.0592 36.0137 16.7092M19.3034 44.2491C18.0077 44.2348 16.7242 43.9977 15.5089 43.5481C14.6276 43.2084 13.8272 42.6879 13.1592 42.0202C12.4912 41.3525 11.9704 40.5523 11.6303 39.6711C11.1805 38.456 10.9434 37.1724 10.9294 35.8767C10.8302 33.723 10.8107 33.076 10.8107 27.6197C10.8107 22.1633 10.8323 21.5179 10.9294 19.3621C10.9451 18.0666 11.1822 16.7833 11.6303 15.5676C11.97 14.6861 12.4906 13.8855 13.1587 13.2174C13.8267 12.5494 14.6273 12.0287 15.5089 11.6891C16.7241 11.2393 18.0077 11.0021 19.3034 10.9881C21.457 10.8889 22.1041 10.8695 27.5582 10.8695C33.0124 10.8695 33.66 10.8905 35.8158 10.9886C37.1113 11.0044 38.3946 11.2414 39.6103 11.6896C40.4918 12.0293 41.2924 12.55 41.9605 13.218C42.6285 13.886 43.1491 14.6866 43.4888 15.5682C43.9386 16.7834 44.1757 18.067 44.1898 19.3627C44.289 21.5195 44.3084 22.1633 44.3084 27.6202C44.3084 33.0771 44.2885 33.722 44.1898 35.8778C44.1747 37.1733 43.9376 38.4567 43.4888 39.6722C43.1488 40.5534 42.628 41.3536 41.96 42.0213C41.292 42.689 40.4916 43.2095 39.6103 43.5492C38.3951 43.999 37.1115 44.2361 35.8158 44.2502C33.6622 44.3494 33.0151 44.3688 27.5582 44.3688C22.1014 44.3688 21.4565 44.3488 19.3034 44.2502M19.1341 7.30903C17.4387 7.34236 15.7613 7.66325 14.1733 8.25804C12.8158 8.78289 11.583 9.58563 10.5539 10.6148C9.52474 11.6439 8.72201 12.8767 8.19716 14.2342C7.60245 15.8222 7.28156 17.4996 7.24815 19.195C7.14731 21.3734 7.12466 22.0701 7.12466 27.6191C7.12466 33.1682 7.14785 33.8643 7.24815 36.0433C7.28155 37.7387 7.60244 39.4161 8.19716 41.0041C8.72204 42.3615 9.52478 43.5943 10.5539 44.6235C11.583 45.6526 12.8158 46.4553 14.1733 46.9802C15.7613 47.5747 17.4387 47.8956 19.1341 47.9292C21.3136 48.0284 22.0092 48.0527 27.5582 48.0527C33.1073 48.0527 33.8034 48.0295 35.9824 47.9292C37.6778 47.8957 39.3552 47.5748 40.9432 46.9802C42.3006 46.4553 43.5335 45.6526 44.5626 44.6235C45.5917 43.5943 46.3944 42.3615 46.9193 41.0041C47.5148 39.4163 47.8357 37.7388 47.8683 36.0433C47.9676 33.8632 47.9902 33.1682 47.9902 27.6191C47.9902 22.0701 47.967 21.3739 47.8683 19.195C47.835 17.4996 47.5141 15.8221 46.9193 14.2342C46.3945 12.877 45.5919 11.6443 44.5631 10.6152C43.5343 9.58614 42.3019 8.78326 40.9448 8.25804C39.357 7.66287 37.6795 7.34197 35.984 7.30903C33.8051 7.20927 33.1089 7.18555 27.5609 7.18555C22.0129 7.18555 21.3152 7.20874 19.1351 7.30903" fill="white"/>
</g>
<defs>
<radialGradient id="paint0_radial_29_14" cx="0" cy="0" r="1" gradientUnits="userSpaceOnUse" gradientTransform="translate(3.55936 53.7954) scale(69.8295)">
<stop offset="0.09" stop-color="#FA8F21"/>
<stop offset="0.78" stop-color="#D82D7E"/>
</radialGradient>
<radialGradient id="paint1_radial_29_14" cx="0" cy="0" r="1" gradientUnits="userSpaceOnUse" gradientTransform="translate(38.0967 52.0289) scale(61.4506)">
<stop offset="0.64" stop-color="#8C3AAA" stop-opacity="0"/>
<stop offset="1" stop-color="#8C3AAA"/>
</radialGradient>
<clipPath id="clip0_29_14">
<rect width="55" height="55" fill="white"/>
</clipPath>
</defs>
</svg>
