<svg width="67" height="67" viewBox="0 0 67 67" fill="none" xmlns="http://www.w3.org/2000/svg">
<path d="M53.8792 27.5568C53.0947 26.615 52.1132 25.8569 51.0037 25.3359C49.8943 24.815 48.684 24.5439 47.4583 24.5418H34.7283L36.2917 20.5497C36.9419 18.8018 37.1585 16.9222 36.9228 15.0722C36.687 13.2222 36.0061 11.457 34.9382 9.92806C33.8704 8.39907 32.4476 7.15193 30.7919 6.29362C29.1362 5.43532 27.297 4.99146 25.4321 5.00012C24.8951 5.00124 24.3698 5.15723 23.9192 5.44937C23.4686 5.74151 23.1118 6.15741 22.8917 6.64721L14.9354 24.5418H8.375C6.15381 24.5418 4.0236 25.4242 2.45298 26.9948C0.882364 28.5654 0 30.6956 0 32.9168V52.4585C0 54.6796 0.882364 56.8099 2.45298 58.3805C4.0236 59.9511 6.15381 60.8335 8.375 60.8335H43.9129C45.8721 60.8328 47.7691 60.1453 49.2738 58.8905C50.7785 57.6358 51.7957 55.8932 52.1483 53.966L55.6938 34.4243C55.913 33.2166 55.8642 31.9754 55.5506 30.7886C55.237 29.6019 54.6664 28.4986 53.8792 27.5568ZM13.9583 55.2501H8.375C7.6346 55.2501 6.92453 54.956 6.40099 54.4325C5.87746 53.9089 5.58333 53.1988 5.58333 52.4585V32.9168C5.58333 32.1764 5.87746 31.4663 6.40099 30.9428C6.92453 30.4192 7.6346 30.1251 8.375 30.1251H13.9583V55.2501ZM50.25 33.4193L46.7046 52.961C46.5857 53.6113 46.2398 54.1983 45.7286 54.6175C45.2174 55.0367 44.574 55.2609 43.9129 55.2501H19.5417V27.9197L27.135 10.8347C27.9166 11.0626 28.6425 11.45 29.2669 11.9725C29.8912 12.4951 30.4005 13.1414 30.7625 13.8706C31.1245 14.5999 31.3314 15.3963 31.3701 16.2095C31.4088 17.0227 31.2786 17.8352 30.9875 18.5955L29.5079 22.5876C29.1926 23.4314 29.0862 24.339 29.1977 25.2328C29.3092 26.1267 29.6353 26.9803 30.1481 27.7208C30.661 28.4613 31.3454 29.0667 32.143 29.4854C32.9405 29.9041 33.8276 30.1235 34.7283 30.1251H47.4583C47.8685 30.1245 48.2737 30.2142 48.6452 30.3879C49.0167 30.5616 49.3454 30.815 49.6079 31.1301C49.8769 31.4409 50.0738 31.8072 50.1848 32.2029C50.2958 32.5986 50.3181 33.014 50.25 33.4193Z" fill="black"/>
</svg>
