<svg width="93" height="94" viewBox="0 0 93 94" fill="none" xmlns="http://www.w3.org/2000/svg">
<g id="&#240;&#159;&#166;&#134; icon &#34;list&#34;">
<g id="Group">
<path id="Vector" d="M15.3684 31.0319C17.4904 31.0319 19.2106 29.2952 19.2106 27.1529C19.2106 25.0106 17.4904 23.2739 15.3684 23.2739C13.2465 23.2739 11.5263 25.0106 11.5263 27.1529C11.5263 29.2952 13.2465 31.0319 15.3684 31.0319Z" fill="#231F20"/>
<path id="Vector_2" d="M15.3684 50.4269C17.4904 50.4269 19.2106 48.6902 19.2106 46.5479C19.2106 44.4056 17.4904 42.6689 15.3684 42.6689C13.2465 42.6689 11.5263 44.4056 11.5263 46.5479C11.5263 48.6902 13.2465 50.4269 15.3684 50.4269Z" fill="#231F20"/>
<path id="Vector_3" d="M15.3684 69.8218C17.4904 69.8218 19.2106 68.0852 19.2106 65.9428C19.2106 63.8005 17.4904 62.0638 15.3684 62.0638C13.2465 62.0638 11.5263 63.8005 11.5263 65.9428C11.5263 68.0852 13.2465 69.8218 15.3684 69.8218Z" fill="#231F20"/>
<path id="Vector_4" d="M77.0732 42.6689H30.5065C28.5119 42.6689 26.8949 44.3014 26.8949 46.3151V46.7806C26.8949 48.7944 28.5119 50.4269 30.5065 50.4269H77.0732C79.0678 50.4269 80.6848 48.7944 80.6848 46.7806V46.3151C80.6848 44.3014 79.0678 42.6689 77.0732 42.6689Z" fill="#231F20"/>
<path id="Vector_5" d="M77.0732 62.0638H30.5065C28.5119 62.0638 26.8949 63.6963 26.8949 65.7101V66.1756C26.8949 68.1894 28.5119 69.8218 30.5065 69.8218H77.0732C79.0678 69.8218 80.6848 68.1894 80.6848 66.1756V65.7101C80.6848 63.6963 79.0678 62.0638 77.0732 62.0638Z" fill="#231F20"/>
<path id="Vector_6" d="M77.0732 23.2739H30.5065C28.5119 23.2739 26.8949 24.9064 26.8949 26.9202V27.3857C26.8949 29.3994 28.5119 31.0319 30.5065 31.0319H77.0732C79.0678 31.0319 80.6848 29.3994 80.6848 27.3857V26.9202C80.6848 24.9064 79.0678 23.2739 77.0732 23.2739Z" fill="#231F20"/>
</g>
</g>
</svg>
