<svg width="57" height="57" viewBox="0 0 57 57" fill="none" xmlns="http://www.w3.org/2000/svg">
<path d="M56.1997 52.1947L45.6324 41.705C49.7343 36.5867 51.7207 30.0901 51.1832 23.5512C50.6458 17.0122 47.6253 10.9278 42.7429 6.54908C37.8605 2.17037 31.4872 -0.169858 24.9336 0.00960883C18.3799 0.189076 12.1441 2.87459 7.50826 7.51396C2.87241 12.1533 0.188932 18.3939 0.00960154 24.9525C-0.169729 31.5111 2.16872 37.8892 6.54411 42.7754C10.9195 47.6615 16.9993 50.6843 23.5333 51.2221C30.0673 51.76 36.5589 49.7721 41.6733 45.6671L52.1551 56.1568C52.4198 56.424 52.7349 56.6361 53.082 56.7808C53.4291 56.9255 53.8013 57 54.1774 57C54.5534 57 54.9257 56.9255 55.2728 56.7808C55.6198 56.6361 55.9349 56.424 56.1997 56.1568C56.713 55.6253 57 54.915 57 54.1758C57 53.4365 56.713 52.7262 56.1997 52.1947ZM25.6943 45.6671C21.7509 45.6671 17.8961 44.4969 14.6173 42.3044C11.3384 40.1119 8.78292 36.9956 7.27384 33.3496C5.76477 29.7036 5.36993 25.6917 6.13925 21.8211C6.90857 17.9506 8.80749 14.3952 11.5959 11.6047C14.3843 8.81418 17.9369 6.91382 21.8046 6.14391C25.6722 5.37401 29.6811 5.76915 33.3243 7.27937C36.9675 8.78959 40.0814 11.3471 42.2723 14.6284C44.4631 17.9097 45.6324 21.7674 45.6324 25.7138C45.6324 31.0058 43.5318 36.081 39.7927 39.8229C36.0536 43.5649 30.9822 45.6671 25.6943 45.6671Z" fill="black"/>
</svg>
