<svg width="55" height="55" viewBox="0 0 55 55" fill="none" xmlns="http://www.w3.org/2000/svg">
<g clip-path="url(#clip0_28_6)">
<path d="M27.5 55C42.6878 55 55 42.6878 55 27.5C55 12.3122 42.6878 0 27.5 0C12.3122 0 0 12.3122 0 27.5C0 42.6878 12.3122 55 27.5 55Z" fill="url(#paint0_linear_28_6)"/>
<path d="M10.2417 28.8452C13.4564 27.0744 17.045 25.5965 20.3979 24.111C26.1662 21.678 31.9575 19.2871 37.8072 17.0612C38.9453 16.6819 40.9904 16.3111 41.1909 17.9978C41.0809 20.3853 40.6294 22.7587 40.3196 25.1322C39.5333 30.3517 38.6242 35.5533 37.738 40.7556C37.4325 42.4884 35.2619 43.3856 33.8729 42.2766C30.5349 40.0216 27.1711 37.7891 23.8757 35.4818C22.7964 34.385 23.7974 32.8098 24.7612 32.0265C27.5105 29.317 30.4262 27.015 33.0319 24.1656C33.7347 22.4684 31.658 23.8988 30.973 24.3372C27.2092 26.9309 23.5375 29.683 19.5692 31.9625C17.5422 33.0783 15.1798 32.1248 13.1537 31.5019C11.3371 30.75 8.6751 29.9921 10.2415 28.8454L10.2417 28.8452Z" fill="white"/>
</g>
<defs>
<linearGradient id="paint0_linear_28_6" x1="36.669" y1="9.1685" x2="22.919" y2="41.25" gradientUnits="userSpaceOnUse">
<stop stop-color="#37AEE2"/>
<stop offset="1" stop-color="#1E96C8"/>
</linearGradient>
<clipPath id="clip0_28_6">
<rect width="55" height="55" fill="white"/>
</clipPath>
</defs>
</svg>
