<svg width="53" height="53" viewBox="0 0 53 59" fill="none" xmlns="http://www.w3.org/2000/svg">
<path d="M52.5 37.9167C52.4935 36.1659 51.962 34.4572 50.974 33.0117C49.9861 31.5662 48.5872 30.4503 46.9583 29.8084L52.4125 9.39169C52.5264 8.95688 52.5383 8.50161 52.4473 8.06144C52.3562 7.62127 52.1646 7.2081 51.8875 6.85419C51.6042 6.52259 51.2501 6.25874 50.8514 6.08207C50.4526 5.9054 50.0193 5.82041 49.5833 5.83336H9.625L8.6625 2.15836C8.49516 1.53685 8.12693 0.988149 7.6152 0.597755C7.10347 0.207361 6.47697 -0.00279671 5.83333 2.8109e-05H0V5.83336H3.5875L10.8208 32.8417C10.9918 33.478 11.3731 34.0377 11.9027 34.4296C12.4323 34.8215 13.079 35.0226 13.7375 35H43.75C44.5235 35 45.2654 35.3073 45.8124 35.8543C46.3594 36.4013 46.6667 37.1431 46.6667 37.9167C46.6667 38.6902 46.3594 39.4321 45.8124 39.9791C45.2654 40.5261 44.5235 40.8334 43.75 40.8334H5.83333C5.05978 40.8334 4.31792 41.1406 3.77094 41.6876C3.22396 42.2346 2.91667 42.9765 2.91667 43.75C2.91667 44.5236 3.22396 45.2654 3.77094 45.8124C4.31792 46.3594 5.05978 46.6667 5.83333 46.6667H9.275C8.79531 47.9883 8.64117 49.4061 8.82563 50.7999C9.01009 52.1938 9.52772 53.5226 10.3347 54.674C11.1416 55.8253 12.2142 56.7653 13.4614 57.4142C14.7087 58.0632 16.094 58.402 17.5 58.402C18.906 58.402 20.2913 58.0632 21.5386 57.4142C22.7858 56.7653 23.8584 55.8253 24.6653 54.674C25.4723 53.5226 25.9899 52.1938 26.1744 50.7999C26.3588 49.4061 26.2047 47.9883 25.725 46.6667H32.6083C32.1717 47.8701 32.0044 49.1547 32.1183 50.4298C32.2322 51.705 32.6246 52.9396 33.2676 54.0465C33.9107 55.1535 34.7888 56.1059 35.8401 56.8365C36.8914 57.5671 38.0902 58.0581 39.3519 58.2749C40.6136 58.4917 41.9075 58.4289 43.1423 58.0912C44.3772 57.7534 45.5229 57.1487 46.4985 56.3199C47.4742 55.4911 48.2562 54.4582 48.7892 53.2943C49.3222 52.1303 49.5933 50.8635 49.5833 49.5834C49.5779 48.0765 49.1755 46.5977 48.4167 45.2959C49.6639 44.5095 50.6922 43.4208 51.406 42.1307C52.1199 40.8406 52.4962 39.3911 52.5 37.9167ZM41.0958 29.1667H16.0417L11.2 11.6667H45.7917L41.0958 29.1667ZM17.5 52.5C16.9231 52.5 16.3592 52.329 15.8796 52.0085C15.3999 51.688 15.0261 51.2325 14.8054 50.6995C14.5846 50.1666 14.5268 49.5801 14.6394 49.0143C14.7519 48.4486 15.0297 47.9289 15.4376 47.521C15.8455 47.1131 16.3652 46.8353 16.931 46.7227C17.4968 46.6102 18.0832 46.668 18.6162 46.8887C19.1491 47.1095 19.6046 47.4833 19.9251 47.9629C20.2456 48.4426 20.4167 49.0065 20.4167 49.5834C20.4167 50.3569 20.1094 51.0988 19.5624 51.6458C19.0154 52.1927 18.2735 52.5 17.5 52.5ZM40.8333 52.5C40.2565 52.5 39.6926 52.329 39.2129 52.0085C38.7333 51.688 38.3594 51.2325 38.1387 50.6995C37.9179 50.1666 37.8602 49.5801 37.9727 49.0143C38.0852 48.4486 38.363 47.9289 38.7709 47.521C39.1788 47.1131 39.6985 46.8353 40.2643 46.7227C40.8301 46.6102 41.4165 46.668 41.9495 46.8887C42.4824 47.1095 42.938 47.4833 43.2585 47.9629C43.5789 48.4426 43.75 49.0065 43.75 49.5834C43.75 50.3569 43.4427 51.0988 42.8957 51.6458C42.3487 52.1927 41.6069 52.5 40.8333 52.5Z" fill="black"/>
</svg>
