<svg width="55" height="55" viewBox="0 0 55 55" fill="none" xmlns="http://www.w3.org/2000/svg">
<g clip-path="url(#clip0_29_9)">
<path d="M54.5703 27.5945C54.5703 42.4258 42.5462 54.45 27.7148 54.45C12.8834 54.45 0.859375 42.4258 0.859375 27.5945C0.859375 12.7631 12.8834 0.739014 27.7148 0.739014C42.5462 0.739014 54.5703 12.7631 54.5703 27.5945Z" fill="#4D77A2"/>
<path fill-rule="evenodd" clip-rule="evenodd" d="M26.7004 39.373H28.8088C28.8088 39.373 29.4446 39.3035 29.7695 38.9523C30.0681 38.6303 30.0593 38.0266 30.0593 38.0266C30.0593 38.0266 30.0172 35.1983 31.3309 34.7822C32.6259 34.3708 34.2855 37.5148 36.048 38.7232C37.3803 39.6395 38.3925 39.4386 38.3925 39.4386L43.1001 39.3731C43.1001 39.3731 45.5639 39.2212 44.3952 37.284C44.2993 37.1245 43.715 35.8506 40.8936 33.2326C37.9414 30.493 38.3363 30.9347 41.894 26.1943C44.0608 23.3074 44.9257 21.5453 44.6569 20.79C44.3974 20.0701 42.8057 20.2618 42.8057 20.2618L37.5018 20.2945C37.5018 20.2945 37.1092 20.2408 36.817 20.4137C36.5318 20.5843 36.3494 20.9841 36.3494 20.9841C36.3494 20.9841 35.5102 23.219 34.3907 25.1165C32.0297 29.128 31.0854 29.3383 30.6998 29.0906C29.8022 28.5085 30.0265 26.7581 30.0265 25.5144C30.0265 21.629 30.6155 20.0091 28.8787 19.591C28.3037 19.451 27.8783 19.3593 26.4058 19.3455C24.5125 19.3245 22.9112 19.3505 22.0043 19.7943C21.4012 20.0889 20.9361 20.7483 21.2189 20.7854C21.5695 20.8319 22.3643 21.0007 22.785 21.5734C23.3273 22.3119 23.3086 23.9711 23.3086 23.9711C23.3086 23.9711 23.6218 28.5459 22.5793 29.1138C21.864 29.5048 20.8846 28.7071 18.7785 25.0697C17.701 23.207 16.8875 21.1479 16.8875 21.1479C16.8875 21.1479 16.7308 20.7643 16.4504 20.5583C16.1091 20.3081 15.6346 20.2293 15.6346 20.2293L10.597 20.2617C10.597 20.2617 9.83994 20.2824 9.56182 20.6123C9.31636 20.9042 9.54345 21.51 9.54345 21.51C9.54345 21.51 13.4866 30.7385 17.9535 35.3882C22.0488 39.6536 26.7004 39.373 26.7004 39.373V39.373Z" fill="white"/>
</g>
<defs>
<clipPath id="clip0_29_9">
<rect width="55" height="55" fill="white"/>
</clipPath>
</defs>
</svg>
